<svg xmlns="http://www.w3.org/2000/svg" width="985" height="985" viewBox="0 0 985 985"><g transform="translate(-253.066 -362.066)"><g transform="translate(253.066 362.066)" fill="none"><path d="M492.5,0C764.5,0,985,220.5,985,492.5S764.5,985,492.5,985,0,764.5,0,492.5,220.5,0,492.5,0Z" stroke="none"/><path d="M 492.5 150 C 303.6447143554688 150 150 303.6447143554688 150 492.5 C 150 681.3552856445312 303.6447143554688 835 492.5 835 C 681.3552856445312 835 835 681.3552856445312 835 492.5 C 835 303.6447143554688 681.3552856445312 150 492.5 150 M 492.5 0 C 764.500244140625 0 985 220.4996948242188 985 492.5 C 985 764.500244140625 764.500244140625 985 492.5 985 C 220.4996948242188 985 0 764.500244140625 0 492.5 C 0 220.4996948242188 220.4996948242188 0 492.5 0 Z" stroke="none" fill="#000"/></g><g transform="translate(498.194 582.974)" fill="#ab51e6"><path d="M 497.3416137695312 431.9709777832031 L 0.8650346398353577 431.9709777832031 L 249.1032867431641 1.001721620559692 L 497.3416137695312 431.9709777832031 Z" stroke="none"/><path d="M 249.1032867431641 2.003570556640625 L 1.73004150390625 431.4709777832031 L 496.4764709472656 431.4709777832031 L 249.1032867431641 2.003570556640625 M 249.1032867431641 0 L 498.20654296875 432.4709777832031 L -3.0517578125e-05 432.4709777832031 L 249.1032867431641 0 Z" stroke="none" fill="#fff"/></g></g></svg>